<svg width="15" height="15" viewBox="0 0 15 15" fill="none" xmlns="http://www.w3.org/2000/svg">
<g clip-path="url(#clip0_4_7124)">
<path d="M7.5 15C11.6421 15 15 11.6421 15 7.5C15 3.35786 11.6421 0 7.5 0C3.35786 0 0 3.35786 0 7.5C0 11.6421 3.35786 15 7.5 15Z" fill="#D80027"/>
<path d="M4.10449 4.56445L4.75195 6.55664H6.84668L5.15332 7.79004L5.80078 9.78223L4.10449 8.55176L2.4082 9.78223L3.05859 7.79004L1.3623 6.55664H3.45703L4.10449 4.56445Z" fill="#FFDA44"/>
<path d="M8.8916 11.6162L8.39648 11.0068L7.66406 11.291L8.08887 10.6318L7.59375 10.0195L8.35254 10.2217L8.78027 9.5625L8.82129 10.3477L9.58301 10.5498L8.84766 10.8311L8.8916 11.6162Z" fill="#FFDA44"/>
<path d="M9.87598 9.8291L10.1104 9.0791L9.46875 8.625L10.2539 8.61328L10.4854 7.86328L10.7402 8.60742L11.5254 8.59863L10.8955 9.06738L11.1475 9.81152L10.5059 9.35742L9.87598 9.8291Z" fill="#FFDA44"/>
<path d="M11.2031 5.50488L10.8574 6.21094L11.4199 6.75879L10.6436 6.64746L10.2979 7.35059L10.1631 6.57715L9.38379 6.46582L10.0811 6.09961L9.94629 5.32324L10.5088 5.87109L11.2031 5.50488Z" fill="#FFDA44"/>
<path d="M8.91211 3.36621L8.85352 4.14844L9.58301 4.44434L8.81836 4.63184L8.7627 5.41699L8.34961 4.74902L7.58496 4.93652L8.0918 4.33594L7.67578 3.6709L8.40527 3.9668L8.91211 3.36621Z" fill="#FFDA44"/>
</g>
<defs>
<clipPath id="clip0_4_7124">
<rect width="15" height="15" fill="white"/>
</clipPath>
</defs>
</svg>
