<svg width="15" height="15" viewBox="0 0 15 15" fill="none" xmlns="http://www.w3.org/2000/svg">
<g clip-path="url(#clip0_4_7146)">
<path d="M7.5 15C11.6421 15 15 11.6421 15 7.5C15 3.35786 11.6421 0 7.5 0C3.35786 0 0 3.35786 0 7.5C0 11.6421 3.35786 15 7.5 15Z" fill="#F0F0F0"/>
<path d="M14.9365 6.52175H8.47831H8.47828V0.0634863C8.15804 0.0217969 7.83155 0 7.5 0C7.16845 0 6.84196 0.0217969 6.52175 0.0634863V6.52169V6.52172H0.0634863C0.0217969 6.84196 0 7.16839 0 7.5C0 7.83161 0.0217969 8.15804 0.0634863 8.47825H6.52169H6.52172V14.9365C6.84196 14.9782 7.16845 15 7.5 15C7.83155 15 8.15804 14.9782 8.47825 14.9365V8.47831V8.47828H14.9365C14.9782 8.15804 15 7.83161 15 7.5C15 7.16839 14.9782 6.84196 14.9365 6.52175V6.52175Z" fill="#D80027"/>
</g>
<defs>
<clipPath id="clip0_4_7146">
<rect width="15" height="15" fill="white"/>
</clipPath>
</defs>
</svg>
