<svg width="15" height="15" viewBox="0 0 15 15" fill="none" xmlns="http://www.w3.org/2000/svg">
<g clip-path="url(#clip0_4_7156)">
<path d="M7.5 15C11.6421 15 15 11.6421 15 7.5C15 3.35786 11.6421 0 7.5 0C3.35786 0 0 3.35786 0 7.5C0 11.6421 3.35786 15 7.5 15Z" fill="#F0F0F0"/>
<path d="M15.0002 7.50006C15.0002 4.27532 12.9649 1.52625 10.1089 0.466553V14.5336C12.9649 13.4739 15.0002 10.7248 15.0002 7.50006V7.50006Z" fill="#D80027"/>
<path d="M0 7.50006C0 10.7248 2.03534 13.4739 4.89132 14.5336V0.466553C2.03534 1.52625 0 4.27532 0 7.50006Z" fill="#0052B4"/>
</g>
<defs>
<clipPath id="clip0_4_7156">
<rect width="15" height="15" fill="white"/>
</clipPath>
</defs>
</svg>
