<svg width="15" height="16" viewBox="0 0 15 16" fill="none" xmlns="http://www.w3.org/2000/svg">
<g clip-path="url(#clip0_4_7180)">
<path d="M7.5 15.9893C11.6421 15.9893 15 12.6314 15 8.48926C15 4.34712 11.6421 0.989258 7.5 0.989258C3.35786 0.989258 0 4.34712 0 8.48926C0 12.6314 3.35786 15.9893 7.5 15.9893Z" fill="#F0F0F0"/>
<path d="M7.49994 0.989258C4.52648 0.989258 1.95727 2.71968 0.744141 5.2284H14.2557C13.0426 2.71968 10.4734 0.989258 7.49994 0.989258V0.989258Z" fill="#FF9811"/>
<path d="M7.49994 15.9891C10.4734 15.9891 13.0426 14.2587 14.2557 11.75H0.744141C1.95727 14.2587 4.52648 15.9891 7.49994 15.9891Z" fill="#6DA544"/>
<path d="M7.50004 11.098C8.94077 11.098 10.1087 9.93003 10.1087 8.4893C10.1087 7.04856 8.94077 5.88062 7.50004 5.88062C6.0593 5.88062 4.89136 7.04856 4.89136 8.4893C4.89136 9.93003 6.0593 11.098 7.50004 11.098Z" fill="#0052B4"/>
<path d="M7.50006 10.1197C8.40052 10.1197 9.13049 9.38978 9.13049 8.48932C9.13049 7.58885 8.40052 6.85889 7.50006 6.85889C6.5996 6.85889 5.86963 7.58885 5.86963 8.48932C5.86963 9.38978 6.5996 10.1197 7.50006 10.1197Z" fill="#F0F0F0"/>
<path d="M7.49994 6.47729L8.00294 7.61806L9.24231 7.48326L8.50591 8.48923L9.24231 9.4952L8.00294 9.3604L7.49994 10.5012L6.99694 9.3604L5.75757 9.49517L6.49397 8.48923L5.75757 7.48326L6.99694 7.61806L7.49994 6.47729Z" fill="#0052B4"/>
</g>
<defs>
<clipPath id="clip0_4_7180">
<rect width="15" height="15" fill="white" transform="translate(0 0.989258)"/>
</clipPath>
</defs>
</svg>
