<svg width="28" height="25" viewBox="0 0 28 25" fill="none" xmlns="http://www.w3.org/2000/svg">
<path d="M24.7655 10.4596H23.8506V10.4163H13.6289V14.583H20.0476C19.1112 17.0085 16.5949 18.7497 13.6289 18.7497C9.86565 18.7497 6.81447 15.9512 6.81447 12.4997C6.81447 9.04811 9.86565 6.24967 13.6289 6.24967C15.3661 6.24967 16.9465 6.85072 18.1498 7.83249L21.3622 4.88613C19.3338 3.15228 16.6205 2.08301 13.6289 2.08301C7.35678 2.08301 2.27148 6.74707 2.27148 12.4997C2.27148 18.2523 7.35678 22.9163 13.6289 22.9163C19.9011 22.9163 24.9864 18.2523 24.9864 12.4997C24.9864 11.8012 24.908 11.1195 24.7655 10.4596Z" fill="#FFC107"/>
<path d="M3.58105 7.65124L7.31255 10.1611C8.32223 7.86842 10.7675 6.24967 13.629 6.24967C15.3661 6.24967 16.9465 6.85072 18.1498 7.83249L21.3623 4.88613C19.3338 3.15228 16.6206 2.08301 13.629 2.08301C9.2666 2.08301 5.48343 4.34186 3.58105 7.65124Z" fill="#FF3D00"/>
<path d="M13.6286 22.9165C16.5622 22.9165 19.2278 21.8868 21.2432 20.2124L17.728 17.4842C16.5494 18.3063 15.1093 18.7509 13.6286 18.7499C10.6745 18.7499 8.16619 17.0223 7.22124 14.6113L3.51758 17.2285C5.39724 20.602 9.21448 22.9165 13.6286 22.9165Z" fill="#4CAF50"/>
<path d="M24.7655 10.4602H23.8506V10.417H13.6289V14.5837H20.0476C19.5996 15.738 18.7928 16.7468 17.7267 17.4852L17.7284 17.4842L21.2435 20.2123C20.9948 20.4196 24.9864 17.7087 24.9864 12.5003C24.9864 11.8019 24.908 11.1201 24.7655 10.4602Z" fill="#1976D2"/>
</svg>
