<svg width="24" height="24" viewBox="0 0 24 24" fill="none" xmlns="http://www.w3.org/2000/svg">
<path d="M10.2525 1.50012C9.855 1.50012 9.54 1.81512 9.54 2.20512V4.98011C9.54 5.07758 9.50129 5.17106 9.43237 5.23998C9.36345 5.3089 9.26997 5.34762 9.1725 5.34762C9.07504 5.34762 8.98156 5.3089 8.91264 5.23998C8.84372 5.17106 8.805 5.07758 8.805 4.98011V2.23512C8.805 1.84512 8.505 1.50762 8.1225 1.50012C8.02805 1.4971 7.93395 1.5131 7.8458 1.54718C7.75765 1.58126 7.67725 1.63271 7.60939 1.69848C7.54152 1.76425 7.48757 1.84299 7.45074 1.93002C7.41391 2.01706 7.39496 2.11061 7.395 2.20512V4.98011C7.395 5.07758 7.35629 5.17106 7.28737 5.23998C7.21845 5.3089 7.12497 5.34762 7.0275 5.34762C6.93004 5.34762 6.83656 5.3089 6.76764 5.23998C6.69872 5.17106 6.66 5.07758 6.66 4.98011V2.23512C6.66 1.84512 6.36 1.50762 5.9775 1.50012C5.88305 1.4971 5.78895 1.5131 5.7008 1.54718C5.61265 1.58126 5.53225 1.63271 5.46438 1.69848C5.39652 1.76425 5.34257 1.84299 5.30574 1.93002C5.26891 2.01706 5.24996 2.11061 5.25 2.20512V6.94512C5.24921 7.38573 5.3506 7.82053 5.54619 8.21535C5.74178 8.61018 6.02625 8.95427 6.37725 9.22061C7.0125 9.68561 7.0125 11.1834 7.0125 11.1834V21.5334C7.0125 22.0659 7.4475 22.5009 7.98 22.5009H8.22C8.7525 22.5009 9.1875 22.0659 9.1875 21.5334V11.1751C9.1875 11.1751 9.1875 9.64737 9.813 9.21987C10.1666 8.95393 10.4535 8.60932 10.6508 8.21332C10.8481 7.81732 10.9506 7.38081 10.95 6.93837V2.20512C10.9516 2.11272 10.9347 2.02095 10.9003 1.93518C10.8659 1.84941 10.8147 1.77139 10.7497 1.7057C10.6848 1.64001 10.6073 1.58799 10.5219 1.55268C10.4365 1.51737 10.3449 1.4995 10.2525 1.50012ZM17.295 1.50012C18.225 1.50012 18.975 2.25011 18.975 3.18011V13.4176L18.9675 13.4154V21.5259C18.9675 22.0584 18.5325 22.4934 18 22.4934H17.76C17.2275 22.4934 16.7925 22.0584 16.7925 21.5259V12.6279C16.2216 12.3683 15.7376 11.9497 15.3984 11.4221C15.0592 10.8946 14.8792 10.2805 14.88 9.65337V3.91511C14.8725 2.58011 15.96 1.50012 17.295 1.50012Z" fill="black"/>
</svg>
