<svg width="31" height="30" viewBox="0 0 31 30" fill="none" xmlns="http://www.w3.org/2000/svg">
<path d="M30.7296 27.9103C28.4689 24.0019 24.9851 21.1994 20.9194 19.8709C22.9304 18.6737 24.4929 16.8494 25.3669 14.6783C26.2408 12.5071 26.3779 10.1091 25.757 7.85246C25.1362 5.59585 23.7917 3.60542 21.9302 2.18685C20.0686 0.768277 17.7929 0 15.4524 0C13.1119 0 10.8362 0.768277 8.97462 2.18685C7.11306 3.60542 5.76863 5.59585 5.14778 7.85246C4.52693 10.1091 4.664 12.5071 5.53794 14.6783C6.41188 16.8494 7.97436 18.6737 9.98544 19.8709C5.91974 21.1979 2.43591 24.0004 0.17521 27.9103C0.0923062 28.0455 0.0373166 28.1959 0.0134858 28.3527C-0.010345 28.5094 -0.00253423 28.6694 0.0364572 28.8231C0.0754487 28.9768 0.144831 29.1212 0.240511 29.2476C0.33619 29.3741 0.456229 29.4801 0.593544 29.5594C0.730859 29.6387 0.88267 29.6897 1.04002 29.7094C1.19737 29.7291 1.35707 29.7171 1.5097 29.6741C1.66232 29.631 1.80479 29.5579 1.92868 29.4589C2.05258 29.3599 2.1554 29.2371 2.23107 29.0978C5.02763 24.2647 9.9706 21.379 15.4524 21.379C20.9342 21.379 25.8772 24.2647 28.6737 29.0978C28.7494 29.2371 28.8522 29.3599 28.9761 29.4589C29.1 29.5579 29.2425 29.631 29.3951 29.6741C29.5477 29.7171 29.7074 29.7291 29.8648 29.7094C30.0221 29.6897 30.1739 29.6387 30.3112 29.5594C30.4486 29.4801 30.5686 29.3741 30.6643 29.2476C30.76 29.1212 30.8293 28.9768 30.8683 28.8231C30.9073 28.6694 30.9151 28.5094 30.8913 28.3527C30.8675 28.1959 30.8125 28.0455 30.7296 27.9103ZM7.1399 10.6915C7.1399 9.04748 7.62742 7.44034 8.54081 6.07336C9.4542 4.70638 10.7524 3.64094 12.2713 3.01179C13.7903 2.38264 15.4616 2.21802 17.0741 2.53876C18.6866 2.8595 20.1677 3.65119 21.3302 4.81371C22.4927 5.97624 23.2844 7.45738 23.6052 9.06985C23.9259 10.6823 23.7613 12.3537 23.1321 13.8726C22.503 15.3915 21.4376 16.6897 20.0706 17.6031C18.7036 18.5165 17.0965 19.004 15.4524 19.004C13.2485 19.0017 11.1356 18.1251 9.57718 16.5668C8.01879 15.0084 7.14226 12.8954 7.1399 10.6915Z" fill="black"/>
</svg>
